<svg xmlns="http://www.w3.org/2000/svg" xmlns:xlink="http://www.w3.org/1999/xlink" xmlns:fi="http://pattern.flaticon.com/" x="0" y="0" width="400" height="200" viewBox="0 0 700 350"><rect x="0px" y="0px" width="100%" height="100%" opacity="1" fill="#ffffff"/><defs><g transform="matrix(0.13349320093963782 0.01820362120030235 0.01820362120030235 -0.13349320093963782 149.45804004583403 85.66421476727004)" id="L1_4"><path d="M403.7,240.935c43.272-46.07,62.627-91.495,45.902-120.465c-13.11-22.706-48.114-32.239-96.132-26.191    c-10.017,1.271-20.47,3.32-31.124,5.805C304.088,39.517,274.412,0,240.945,0c-33.464,0-63.139,39.506-81.4,100.059    c-21.255-5.015-41.291-7.728-59.141-7.728c-33.941,0-57.496,9.732-68.125,28.14c-16.725,28.97,2.631,74.397,45.905,120.468    c-43.275,46.072-62.63,91.501-45.905,120.474c10.687,18.515,34.389,28.159,68.077,28.159c9.893,0,20.65-0.831,32.187-2.515    c8.735-1.275,17.794-3.153,26.977-5.31c18.26,60.597,47.944,100.137,81.423,100.137c33.467,0,63.143-39.517,81.402-100.085    c10.655,2.485,21.109,4.536,31.128,5.807c9.481,1.202,18.452,1.79,26.853,1.79c34.11,0,58.754-9.75,69.275-27.982    C466.327,332.436,446.973,287.006,403.7,240.935z M355.364,109.221c8.908-1.129,17.309-1.677,25.107-1.677    c28.147,0,48.426,7.184,56.088,20.456c12.096,20.951-3.841,59.984-43.329,102.222c-15.77-15.487-34.148-30.899-54.662-45.654    c-2.516-25.067-6.655-48.623-12.158-69.971C336.321,112.309,346.05,110.402,355.364,109.221z M340.219,204.424    c15.989,12.103,30.205,24.383,42.547,36.512c-12.341,12.128-26.558,24.41-42.547,36.513c0.758-11.909,1.152-24.099,1.152-36.508    C341.371,228.53,340.977,216.336,340.219,204.424z M322.198,173.211c-9.934-6.609-20.294-13.045-31.039-19.247    c-10.671-6.16-21.458-11.875-32.261-17.212c18.06-7.615,35.816-13.735,52.995-18.48    C316.206,134.98,319.717,153.378,322.198,173.211z M240.945,15.059c24.203,0,50.052,33.357,66.886,88.728    c-21.614,5.978-44.099,14.215-66.835,24.475c-22.763-10.239-45.356-18.461-66.944-24.472    C190.888,48.417,216.739,15.059,240.945,15.059z M169.998,118.249c17.104,4.76,34.9,10.967,52.962,18.563    c-10.766,5.339-21.536,10.973-32.236,17.152c-10.745,6.203-21.105,12.64-31.039,19.25    C162.166,153.37,165.681,134.963,169.998,118.249z M130.371,372.155c-43.677,6.379-74.673-0.291-85.048-18.272    c-12.097-20.953,3.841-59.991,43.331-102.231c15.77,15.486,34.147,30.898,54.659,45.655c2.512,25.038,6.645,48.569,12.138,69.898    C146.866,369.221,138.426,370.979,130.371,372.155z M141.663,277.449c-15.989-12.104-30.203-24.382-42.545-36.511    c12.341-12.128,26.556-24.408,42.546-36.511c-0.758,11.91-1.153,24.104-1.153,36.514    C140.511,253.35,140.905,265.541,141.663,277.449z M143.314,184.57c-20.513,14.755-38.891,30.167-54.66,45.655    C49.165,187.985,33.227,148.951,45.324,128c9.831-17.033,35.378-20.61,55.081-20.61c16.598,0,35.25,2.499,55.089,7.135    C149.98,135.893,145.833,159.474,143.314,184.57z M159.684,308.664c9.934,6.61,20.294,13.047,31.04,19.251    c10.659,6.155,21.386,11.768,32.11,17.09c-17.951,7.518-35.739,13.73-52.868,18.512    C165.663,346.833,162.16,328.463,159.684,308.664z M240.945,466.823c-24.209,0-50.062-33.366-66.899-88.751    c21.675-6.012,44.192-14.296,66.852-24.498c22.77,10.281,45.289,18.534,66.933,24.52    C290.997,433.467,265.149,466.823,240.945,466.823z M311.893,363.611c-17.199-4.751-34.976-10.883-53.057-18.51    c10.818-5.351,21.623-11.009,32.322-17.186c10.746-6.204,21.107-12.641,31.04-19.251    C319.719,328.501,316.206,346.9,311.893,363.611z M324.282,289.056c-12.62,8.81-26.183,17.461-40.654,25.816    c-14.045,8.11-28.422,15.49-42.836,22.175c-14.17-6.629-28.406-14.014-42.539-22.175c-14.471-8.355-28.034-17.006-40.654-25.816    c-1.32-15.334-2.03-31.405-2.03-48.114c0-16.711,0.71-32.785,2.031-48.12c12.619-8.809,26.182-17.459,40.653-25.813    c14.161-8.178,28.427-15.574,42.626-22.213c14.279,6.65,28.604,14.048,42.749,22.213c14.471,8.353,28.033,17.002,40.653,25.811    c1.32,15.337,2.031,31.41,2.031,48.123C326.312,257.65,325.602,273.722,324.282,289.056z M436.559,353.882    c-9.791,16.96-40.151,23.99-81.191,18.78c-9.315-1.181-19.044-3.089-28.957-5.378c5.504-21.35,9.644-44.909,12.159-69.978    c20.514-14.757,38.892-30.169,54.661-45.657C432.719,293.889,448.656,332.928,436.559,353.882z" fill="#000000"/><path d="M240.945,187.666c-29.378,0-53.279,23.901-53.279,53.275c0,29.375,23.901,53.276,53.279,53.276    c29.375,0,53.272-23.901,53.272-53.276C294.217,211.567,270.32,187.666,240.945,187.666z" fill="#000000"/></g><path d="M151.038,210.19c-1.657,0-3-1.343-3-3v-11.908H62.152v11.908c0,1.657-1.343,3-3,3s-3-1.343-3-3v-11.908H38.095  c-1.657,0-3-1.343-3-3v-21.695c0-1.657,1.343-3,3-3h18.057v-23.198H38.095c-1.657,0-3-1.343-3-3v-21.695c0-1.657,1.343-3,3-3h18.057  V93.497H38.095c-1.657,0-3-1.343-3-3V68.801c0-1.657,1.343-3,3-3h18.057V42.604H38.095c-1.657,0-3-1.343-3-3V17.908  c0-1.657,1.343-3,3-3h18.057V3c0-1.657,1.343-3,3-3s3,1.343,3,3v11.908h85.886V3c0-1.657,1.343-3,3-3s3,1.343,3,3v11.908h18.057  c1.657,0,3,1.343,3,3v21.695c0,1.657-1.343,3-3,3h-18.057v23.198h18.057c1.657,0,3,1.343,3,3v21.695c0,1.657-1.343,3-3,3h-18.057  v23.197h18.057c1.657,0,3,1.343,3,3v21.695c0,1.657-1.343,3-3,3h-18.057v23.198h18.057c1.657,0,3,1.343,3,3v21.695  c0,1.657-1.343,3-3,3h-18.057v11.908C154.038,208.847,152.695,210.19,151.038,210.19z M154.038,189.282h15.057v-15.695h-15.057  V189.282z M62.152,189.282h85.886v-15.695H62.152V189.282z M41.095,189.282h15.057v-15.695H41.095V189.282z M62.152,167.587h85.886  v-23.198H62.152V167.587z M154.038,138.389h15.057v-15.695h-15.057V138.389z M62.152,138.389h85.886v-15.695H62.152V138.389z   M41.095,138.389h15.057v-15.695H41.095V138.389z M62.152,116.694h85.886V93.497H62.152V116.694z M154.038,87.497h15.057V71.801  h-15.057V87.497z M62.152,87.497h85.886V71.801H62.152V87.497z M41.095,87.497h15.057V71.801H41.095V87.497z M62.152,65.801h85.886  V42.604H62.152V65.801z M154.038,36.604h15.057V20.908h-15.057V36.604z M62.152,36.604h85.886V20.908H62.152V36.604z M41.095,36.604  h15.057V20.908H41.095V36.604z" transform="matrix(0.2024186482698465 0.20241864826984649 -0.20241864826984649 0.2024186482698465 349.98076531829406 189.4457315583728)" id="L1_6"/><g transform="matrix(0.09511401504278183 0 0 0.09511401504278183 163.14831312000751 206.1529535425625)" id="L1_8"><path d="M325.762,70.513l-17.706-4.854c-2.279-0.76-4.524-0.521-6.707,0.715c-2.19,1.237-3.669,3.094-4.429,5.568L190.426,440.53    c-0.76,2.475-0.522,4.809,0.715,6.995c1.237,2.19,3.09,3.665,5.568,4.425l17.701,4.856c2.284,0.766,4.521,0.526,6.71-0.712    c2.19-1.243,3.666-3.094,4.425-5.564L332.042,81.936c0.759-2.474,0.523-4.808-0.716-6.999    C330.088,72.747,328.237,71.272,325.762,70.513z"/><path d="M166.167,142.465c0-2.474-0.953-4.665-2.856-6.567l-14.277-14.276c-1.903-1.903-4.093-2.857-6.567-2.857    s-4.665,0.955-6.567,2.857L2.856,254.666C0.95,256.569,0,258.759,0,261.233c0,2.474,0.953,4.664,2.856,6.566l133.043,133.044    c1.902,1.906,4.089,2.854,6.567,2.854s4.665-0.951,6.567-2.854l14.277-14.268c1.903-1.902,2.856-4.093,2.856-6.57    c0-2.471-0.953-4.661-2.856-6.563L51.107,261.233l112.204-112.201C165.217,147.13,166.167,144.939,166.167,142.465z"/><path d="M519.614,254.663L386.567,121.619c-1.902-1.902-4.093-2.857-6.563-2.857c-2.478,0-4.661,0.955-6.57,2.857l-14.271,14.275    c-1.902,1.903-2.851,4.09-2.851,6.567s0.948,4.665,2.851,6.567l112.206,112.204L359.163,373.442    c-1.902,1.902-2.851,4.093-2.851,6.563c0,2.478,0.948,4.668,2.851,6.57l14.271,14.268c1.909,1.906,4.093,2.854,6.57,2.854    c2.471,0,4.661-0.951,6.563-2.854L519.614,267.8c1.903-1.902,2.854-4.096,2.854-6.57    C522.468,258.755,521.517,256.565,519.614,254.663z"/></g><path d="M11.025,87.78h93.333c1.931,0,3.5-1.57,3.5-3.5v-60c0-1.93-1.569-3.5-3.5-3.5H11.025c-1.93,0-3.5,1.57-3.5,3.5v60   C7.525,86.21,9.096,87.78,11.025,87.78z M10.525,24.28c0-0.276,0.224-0.5,0.5-0.5h93.333c0.276,0,0.5,0.224,0.5,0.5v60   c0,0.276-0.224,0.5-0.5,0.5H11.025c-0.276,0-0.5-0.224-0.5-0.5V24.28z M115.383,90.458v2.801c0,0.742-0.602,1.344-1.344,1.344   H1.344C0.602,94.603,0,94.001,0,93.259v-2.801h47.387c0.234,0.781,0.95,1.354,1.807,1.354h16.996c0.856,0,1.572-0.572,1.807-1.354   H115.383z" transform="matrix(0.585594892501831 0 0 0.585594892501831 -24.771289407355653 28.21613856124634)" id="L1_9"/><g transform="matrix(0.747074544429779 0 0 0.747074544429779 239.82898873090744 288.82898873090744)" id="L1_10"><path d="M43,20.113V14.5C43,6.505,35.822,0,27,0S11,6.505,11,14.5v5.613c-3.401,0.586-6,3.55-6,7.117v19.542   C5,50.757,8.243,54,12.229,54h29.542C45.757,54,49,50.757,49,46.771V27.229C49,23.663,46.401,20.699,43,20.113z M13,14.5   C13,7.607,19.28,2,27,2s14,5.607,14,12.5V20H13V14.5z M47,46.771C47,49.654,44.654,52,41.771,52H12.229C9.346,52,7,49.654,7,46.771   V27.229C7,24.346,9.346,22,12.229,22h29.542C44.654,22,47,24.346,47,27.229V46.771z"/><path d="M27,28c-2.206,0-4,1.794-4,4v6c0,2.206,1.794,4,4,4s4-1.794,4-4v-6C31,29.794,29.206,28,27,28z M29,38c0,1.103-0.897,2-2,2   s-2-0.897-2-2v-6c0-1.103,0.897-2,2-2s2,0.897,2,2V38z"/></g><g transform="matrix(0.11155227571725845 0 0 0.11155227571725845 75.49839333072305 117.49839333072305)" id="L1_11"><path d="M492.168,309.579l-17.626-10.177c2.96-14.723,4.458-29.466,4.458-43.902c0-14.646-1.474-29.403-4.384-43.946l17.552-10.134   c5.436-3.138,9.325-8.206,10.949-14.269s0.791-12.396-2.348-17.832l-48-83.139c-3.139-5.436-8.206-9.325-14.269-10.949   c-6.064-1.624-12.396-0.791-17.833,2.348l-17.566,10.142C380.912,68.2,354.798,53.092,327,43.692V23.5   C327,10.542,316.458,0,303.5,0h-96C194.542,0,184,10.542,184,23.5v20.193c-27.65,9.362-53.728,24.49-75.999,44.088L90.332,77.579   c-5.437-3.139-11.77-3.973-17.833-2.348c-6.063,1.625-11.13,5.513-14.269,10.949l-48,83.139   c-3.139,5.436-3.972,11.769-2.348,17.832s5.513,11.131,10.949,14.269l17.626,10.177C33.499,226.32,32,241.063,32,255.5   c0,14.644,1.474,29.401,4.384,43.945l-17.552,10.134c-11.222,6.479-15.08,20.879-8.602,32.102l48,83.139   c6.479,11.221,20.879,15.08,32.102,8.601l17.565-10.142c22.19,19.521,48.303,34.629,76.103,44.03V487.5   c0,12.958,10.542,23.5,23.5,23.5h96c12.958,0,23.5-10.542,23.5-23.5v-20.193c27.651-9.362,53.729-24.49,76-44.087l17.668,10.201   c11.221,6.479,25.623,2.62,32.102-8.601l48-83.139C507.248,330.458,503.39,316.058,492.168,309.579z M487.779,334.181l-48,83.138   c-2.343,4.06-7.552,5.455-11.611,3.111l-22.392-12.928c-2.845-1.643-6.43-1.242-8.842,0.989   c-22.893,21.173-50.437,37.148-79.653,46.199c-3.14,0.973-5.281,3.877-5.281,7.164V487.5c0,4.687-3.813,8.5-8.5,8.5h-96   c-4.687,0-8.5-3.813-8.5-8.5v-25.645c0-3.287-2.141-6.191-5.28-7.164c-29.396-9.107-56.974-25.062-79.755-46.139   c-1.421-1.315-3.25-1.995-5.095-1.995c-1.286,0-2.579,0.33-3.748,1.005L82.832,420.43c-4.06,2.343-9.268,0.948-11.611-3.111   l-48-83.138c-2.343-4.059-0.947-9.268,3.111-11.612l22.272-12.859c2.844-1.642,4.289-4.942,3.566-8.146   C48.739,286.357,47,270.858,47,255.5c0-15.1,1.765-30.584,5.247-46.022c0.722-3.203-0.723-6.504-3.566-8.145L26.332,188.43   c-1.966-1.135-3.372-2.968-3.96-5.161c-0.587-2.193-0.286-4.484,0.849-6.45l48-83.139c1.135-1.966,2.968-3.373,5.162-3.96   c2.192-0.588,4.484-0.286,6.45,0.849l22.392,12.928c2.846,1.644,6.43,1.242,8.842-0.989c22.894-21.173,50.437-37.148,79.653-46.199   c3.14-0.973,5.281-3.877,5.281-7.164V23.5c0-4.687,3.813-8.5,8.5-8.5h96c4.687,0,8.5,3.813,8.5,8.5v25.645   c0,3.287,2.141,6.191,5.28,7.164c29.395,9.106,56.973,25.061,79.755,46.139c2.412,2.232,5.997,2.633,8.843,0.99l22.29-12.869   c1.967-1.135,4.258-1.437,6.45-0.849c2.193,0.588,4.026,1.994,5.162,3.96l48,83.139c1.135,1.966,1.437,4.257,0.849,6.45   c-0.588,2.193-1.994,4.026-3.96,5.161l-22.272,12.859c-2.844,1.642-4.289,4.943-3.566,8.146c3.431,15.206,5.17,30.704,5.17,46.065   c0,15.1-1.765,30.584-5.247,46.021c-0.722,3.203,0.723,6.503,3.566,8.145l22.349,12.903   C488.727,324.913,490.123,330.122,487.779,334.181z"/><path d="M255.5,104C171.962,104,104,171.963,104,255.5S171.962,407,255.5,407S407,339.037,407,255.5S339.038,104,255.5,104z    M255.5,392C180.234,392,119,330.766,119,255.5S180.234,119,255.5,119S392,180.234,392,255.5S330.766,392,255.5,392z"/><path d="M283.5,216h-28c-4.142,0-7.5,3.358-7.5,7.5v64c0,4.142,3.358,7.5,7.5,7.5s7.5-3.358,7.5-7.5V271h20.5   c15.164,0,27.5-12.336,27.5-27.5S298.664,216,283.5,216z M283.5,256H263v-25h20.5c6.893,0,12.5,5.607,12.5,12.5   S290.393,256,283.5,256z"/><path d="M214.522,220.867c-1.098-2.927-3.896-4.867-7.022-4.867h-8c-3.126,0-5.925,1.939-7.022,4.867l-24,64   c-1.455,3.878,0.511,8.201,4.389,9.656c3.878,1.455,8.201-0.511,9.656-4.389L186.697,279h33.605l4.175,11.133   c1.129,3.011,3.987,4.869,7.023,4.869c0.875,0,1.765-0.154,2.632-0.479c3.878-1.454,5.844-5.778,4.389-9.656L214.522,220.867z    M192.322,264l11.178-29.807L214.678,264H192.322z"/><path d="M327.5,216c-4.142,0-7.5,3.358-7.5,7.5v64c0,4.142,3.358,7.5,7.5,7.5s7.5-3.358,7.5-7.5v-64   C335,219.358,331.642,216,327.5,216z"/><path d="M309.152,87.3c5.205,1.659,10.394,3.586,15.421,5.726c0.958,0.408,1.954,0.601,2.934,0.601c2.916,0,5.69-1.712,6.904-4.564   c1.622-3.811-0.152-8.216-3.963-9.838c-5.458-2.323-11.09-4.415-16.742-6.216c-3.945-1.258-8.165,0.922-9.423,4.868   C303.026,81.823,305.206,86.042,309.152,87.3z"/><path d="M100.45,339.904c-1.984-3.636-6.541-4.976-10.176-2.992c-3.636,1.984-4.976,6.54-2.992,10.176   c3.112,5.704,6.557,11.315,10.239,16.677c1.454,2.117,3.801,3.255,6.189,3.255c1.463,0,2.941-0.427,4.239-1.318   c3.415-2.345,4.282-7.014,1.937-10.428C106.493,350.332,103.318,345.161,100.45,339.904z"/><path d="M240.14,431.341c-40.189-3.463-78.337-20.879-107.416-49.041c-2.976-2.882-7.724-2.805-10.605,0.17   c-2.881,2.976-2.806,7.724,0.17,10.605c31.55,30.555,72.947,49.452,116.563,53.21c0.219,0.019,0.436,0.028,0.652,0.028   c3.851,0,7.127-2.949,7.464-6.856C247.323,435.331,244.266,431.697,240.14,431.341z"/><path d="M363.425,97.287c-3.42-2.337-8.087-1.459-10.424,1.96c-2.337,3.42-1.459,8.087,1.96,10.424   c34.844,23.813,60.049,59.248,70.972,99.776c0.902,3.346,3.93,5.55,7.237,5.55c0.646,0,1.303-0.084,1.956-0.26   c4-1.078,6.368-5.194,5.29-9.193C428.564,161.564,401.221,123.118,363.425,97.287z"/></g><g transform="matrix(0.1171875 0 0 0.1171875 238 117.00000124454499)" id="L1_12"><path d="M336.067,208.92l-40.96,24.747c-14.507,8.533-29.867,16.213-44.373,23.04c-4.267,1.707-9.387,4.267-14.507,6.827     c-17.92,9.387-27.307,29.013-23.04,48.64c3.413,15.36,16.213,28.16,31.573,31.573c3.413,0.853,6.827,0.853,10.24,0.853     c16.213,0,30.72-9.387,38.4-23.893c1.707-4.267,4.267-9.387,6.827-14.507c7.68-14.507,14.507-29.867,23.04-44.373l24.747-40.96     c1.707-3.413,0.853-6.827-1.707-10.24C343.747,207.213,339.48,207.213,336.067,208.92z M308.76,252.44     c-9.387,15.36-17.067,30.72-23.893,46.08c-1.707,5.12-4.267,9.387-6.827,14.507c-5.12,11.093-17.067,16.213-29.013,13.653     c-9.387-1.707-17.067-9.387-18.773-18.773c-2.56-11.947,2.56-23.893,13.653-29.013c4.267-2.56,9.387-4.267,14.507-6.827     c15.36-7.68,31.573-15.36,46.08-23.893l11.093-6.827L308.76,252.44z"/><path d="M492.719,207.208c-0.108-0.575-0.27-1.146-0.492-1.702c-0.223-0.558-0.507-1.069-0.837-1.537     c-12.787-30.616-31.365-58.265-54.348-81.565c-0.324-0.482-0.701-0.944-1.135-1.378s-0.896-0.811-1.378-1.135     C388.233,74.226,324.764,45.933,255,45.933c-33.418,0-65.389,6.5-94.725,18.281c-0.575,0.108-1.146,0.27-1.701,0.492     c-0.557,0.223-1.069,0.507-1.537,0.837c-30.616,12.787-58.265,31.365-81.565,54.348c-0.482,0.324-0.944,0.701-1.378,1.135     s-0.812,0.896-1.135,1.378C27.293,168.7-1,232.169-1,301.933c0,58.027,18.773,113.493,55.467,158.72     c1.707,2.56,4.267,3.413,6.827,3.413h387.413c2.56,0,5.12-0.853,6.827-3.413C492.227,415.427,511,359.96,511,301.933     C511,268.515,504.5,236.544,492.719,207.208z M445.293,447H65.56c-11.539-14.88-21.122-30.844-28.695-47.616l23.575-9.557     c4.267-1.707,5.973-6.827,4.267-11.093c-1.707-4.267-6.827-5.973-11.093-4.267l-23.11,9.369     c-8.574-23.342-13.394-48.021-14.278-73.369H75.8c5.12,0,8.533-3.413,8.533-8.533S80.92,293.4,75.8,293.4H16.237     c0.957-26.907,6.416-52.715,15.648-76.694L55.32,226.84c0.853,0.853,2.56,0.853,3.413,0.853c3.413,0,5.973-1.707,7.68-5.12     c1.707-4.267,0-9.387-4.267-11.093l-23.672-10.237c10.699-22.831,24.906-43.721,41.922-61.967l17.59,17.59     c1.707,1.707,3.413,2.56,5.973,2.56s4.267-0.853,5.973-2.56c3.413-3.413,3.413-8.533,0-11.947l-17.59-17.59     c19.117-17.828,41.131-32.581,65.244-43.438l9.52,23.482c0.853,3.413,4.267,5.12,7.68,5.12c0.853,0,1.707,0,3.413-0.853     c4.267-1.707,5.973-6.827,4.267-11.093l-9.329-23.012c23.021-8.463,47.679-13.452,73.329-14.364v59.563     c0,5.12,3.413,8.533,8.533,8.533s8.533-3.413,8.533-8.533V63.17c26.907,0.957,52.715,6.416,76.694,15.648l-10.134,23.436     c-1.707,4.267,0,9.387,4.267,11.093c0.853,0.853,2.56,0.853,3.413,0.853c3.413,0,6.827-2.56,7.68-5.12l10.237-23.672     c22.831,10.699,43.721,24.906,61.967,41.922l-17.59,17.59c-3.413,3.413-3.413,8.533,0,11.947c1.707,1.707,3.413,2.56,5.973,2.56     c1.707,0,4.267-0.853,5.973-2.56l17.59-17.59c17.828,19.117,32.581,41.131,43.438,65.244l-23.482,9.52     c-4.267,1.707-5.973,6.827-4.267,11.093c0.853,3.413,4.267,5.12,7.68,5.12c0.853,0,1.707-0.853,3.413-0.853l23.013-9.329     c8.463,23.021,13.452,47.679,14.364,73.329H434.2c-5.12,0-8.533,3.413-8.533,8.533s3.413,8.533,8.533,8.533h59.575     c-0.927,26.593-6.172,52.45-15.418,76.799l-23.677-10.239c-4.267-1.707-9.387,0-11.093,4.267c-1.707,4.267,0,9.387,4.267,11.093     l23.981,10.37C464.644,418.298,455.773,433.121,445.293,447z"/></g><path d="M51.704,51.273L36.845,35.82c3.79-3.801,6.138-9.041,6.138-14.82c0-11.58-9.42-21-21-21s-21,9.42-21,21s9.42,21,21,21  c5.083,0,9.748-1.817,13.384-4.832l14.895,15.491c0.196,0.205,0.458,0.307,0.721,0.307c0.25,0,0.499-0.093,0.693-0.279  C52.074,52.304,52.086,51.671,51.704,51.273z M21.983,40c-10.477,0-19-8.523-19-19s8.523-19,19-19s19,8.523,19,19  S32.459,40,21.983,40z" transform="matrix(0.6594839692115784 0 0 0.6594839692115784 112.5389057704241 296.306272149086)" id="L1_13"/><path d="M52.618,2.631c-3.51-3.508-9.219-3.508-12.729,0L3.827,38.693C3.81,38.71,3.8,38.731,3.785,38.749  c-0.021,0.024-0.039,0.05-0.058,0.076c-0.053,0.074-0.094,0.153-0.125,0.239c-0.009,0.026-0.022,0.049-0.029,0.075  c-0.003,0.01-0.009,0.02-0.012,0.03l-3.535,14.85c-0.016,0.067-0.02,0.135-0.022,0.202C0.004,54.234,0,54.246,0,54.259  c0.001,0.114,0.026,0.225,0.065,0.332c0.009,0.025,0.019,0.047,0.03,0.071c0.049,0.107,0.11,0.21,0.196,0.296  c0.095,0.095,0.207,0.168,0.328,0.218c0.121,0.05,0.25,0.075,0.379,0.075c0.077,0,0.155-0.009,0.231-0.027l14.85-3.535  c0.027-0.006,0.051-0.021,0.077-0.03c0.034-0.011,0.066-0.024,0.099-0.039c0.072-0.033,0.139-0.074,0.201-0.123  c0.024-0.019,0.049-0.033,0.072-0.054c0.008-0.008,0.018-0.012,0.026-0.02l36.063-36.063C56.127,11.85,56.127,6.14,52.618,2.631z   M51.204,4.045c2.488,2.489,2.7,6.397,0.65,9.137l-9.787-9.787C44.808,1.345,48.716,1.557,51.204,4.045z M46.254,18.895l-9.9-9.9  l1.414-1.414l9.9,9.9L46.254,18.895z M4.961,50.288c-0.391-0.391-1.023-0.391-1.414,0L2.79,51.045l2.554-10.728l4.422-0.491  l-0.569,5.122c-0.004,0.038,0.01,0.073,0.01,0.11c0,0.038-0.014,0.072-0.01,0.11c0.004,0.033,0.021,0.06,0.028,0.092  c0.012,0.058,0.029,0.111,0.05,0.165c0.026,0.065,0.057,0.124,0.095,0.181c0.031,0.046,0.062,0.087,0.1,0.127  c0.048,0.051,0.1,0.094,0.157,0.134c0.045,0.031,0.088,0.06,0.138,0.084C9.831,45.982,9.9,46,9.972,46.017  c0.038,0.009,0.069,0.03,0.108,0.035c0.036,0.004,0.072,0.006,0.109,0.006c0,0,0.001,0,0.001,0c0,0,0.001,0,0.001,0h0.001  c0,0,0.001,0,0.001,0c0.036,0,0.073-0.002,0.109-0.006l5.122-0.569l-0.491,4.422L4.204,52.459l0.757-0.757  C5.351,51.312,5.351,50.679,4.961,50.288z M17.511,44.809L39.889,22.43c0.391-0.391,0.391-1.023,0-1.414s-1.023-0.391-1.414,0  L16.097,43.395l-4.773,0.53l0.53-4.773l22.38-22.378c0.391-0.391,0.391-1.023,0-1.414s-1.023-0.391-1.414,0L10.44,37.738  l-3.183,0.354L34.94,10.409l9.9,9.9L17.157,47.992L17.511,44.809z M49.082,16.067l-9.9-9.9l1.415-1.415l9.9,9.9L49.082,16.067z" transform="matrix(0.5913984275413211 0.07713892488317528 -0.07713892488317528 0.5913984275413211 7.722118568773396 294.47947770019874)" id="L1_14"/></defs><g fi:class="KUsePattern" opacity="0.1"><pattern id="pattern_L1_4" width="350" height="350" patternUnits="userSpaceOnUse"><use xlink:href="#L1_4" x="-350" y="-350"/><use xlink:href="#L1_4" x="0" y="-350"/><use xlink:href="#L1_4" x="350" y="-350"/><use xlink:href="#L1_4" x="-350" y="0"/><use xlink:href="#L1_4" x="0" y="0"/><use xlink:href="#L1_4" x="350" y="0"/><use xlink:href="#L1_4" x="-350" y="350"/><use xlink:href="#L1_4" x="0" y="350"/><use xlink:href="#L1_4" x="350" y="350"/></pattern><rect x="0" y="0" width="100%" height="100%" fill="url(#pattern_L1_4)"/></g><g fi:class="KUsePattern" opacity="0.1"><pattern id="pattern_L1_6" width="350" height="350" patternUnits="userSpaceOnUse"><use xlink:href="#L1_6" x="-350" y="-350"/><use xlink:href="#L1_6" x="0" y="-350"/><use xlink:href="#L1_6" x="350" y="-350"/><use xlink:href="#L1_6" x="-350" y="0"/><use xlink:href="#L1_6" x="0" y="0"/><use xlink:href="#L1_6" x="350" y="0"/><use xlink:href="#L1_6" x="-350" y="350"/><use xlink:href="#L1_6" x="0" y="350"/><use xlink:href="#L1_6" x="350" y="350"/></pattern><rect x="0" y="0" width="100%" height="100%" fill="url(#pattern_L1_6)"/></g><g fi:class="KUsePattern" opacity="0.1"><pattern id="pattern_L1_8" width="350" height="350" patternUnits="userSpaceOnUse"><use xlink:href="#L1_8" x="-350" y="-350"/><use xlink:href="#L1_8" x="0" y="-350"/><use xlink:href="#L1_8" x="350" y="-350"/><use xlink:href="#L1_8" x="-350" y="0"/><use xlink:href="#L1_8" x="0" y="0"/><use xlink:href="#L1_8" x="350" y="0"/><use xlink:href="#L1_8" x="-350" y="350"/><use xlink:href="#L1_8" x="0" y="350"/><use xlink:href="#L1_8" x="350" y="350"/></pattern><rect x="0" y="0" width="100%" height="100%" fill="url(#pattern_L1_8)"/></g><g fi:class="KUsePattern" opacity="0.1"><pattern id="pattern_L1_9" width="350" height="350" patternUnits="userSpaceOnUse"><use xlink:href="#L1_9" x="-350" y="-350"/><use xlink:href="#L1_9" x="0" y="-350"/><use xlink:href="#L1_9" x="350" y="-350"/><use xlink:href="#L1_9" x="-350" y="0"/><use xlink:href="#L1_9" x="0" y="0"/><use xlink:href="#L1_9" x="350" y="0"/><use xlink:href="#L1_9" x="-350" y="350"/><use xlink:href="#L1_9" x="0" y="350"/><use xlink:href="#L1_9" x="350" y="350"/></pattern><rect x="0" y="0" width="100%" height="100%" fill="url(#pattern_L1_9)"/></g><g fi:class="KUsePattern" opacity="0.11"><pattern id="pattern_L1_10" width="350" height="350" patternUnits="userSpaceOnUse"><use xlink:href="#L1_10" x="-350" y="-350"/><use xlink:href="#L1_10" x="0" y="-350"/><use xlink:href="#L1_10" x="350" y="-350"/><use xlink:href="#L1_10" x="-350" y="0"/><use xlink:href="#L1_10" x="0" y="0"/><use xlink:href="#L1_10" x="350" y="0"/><use xlink:href="#L1_10" x="-350" y="350"/><use xlink:href="#L1_10" x="0" y="350"/><use xlink:href="#L1_10" x="350" y="350"/></pattern><rect x="0" y="0" width="100%" height="100%" fill="url(#pattern_L1_10)"/></g><g fi:class="KUsePattern" opacity="0.1"><pattern id="pattern_L1_11" width="350" height="350" patternUnits="userSpaceOnUse"><use xlink:href="#L1_11" x="-350" y="-350"/><use xlink:href="#L1_11" x="0" y="-350"/><use xlink:href="#L1_11" x="350" y="-350"/><use xlink:href="#L1_11" x="-350" y="0"/><use xlink:href="#L1_11" x="0" y="0"/><use xlink:href="#L1_11" x="350" y="0"/><use xlink:href="#L1_11" x="-350" y="350"/><use xlink:href="#L1_11" x="0" y="350"/><use xlink:href="#L1_11" x="350" y="350"/></pattern><rect x="0" y="0" width="100%" height="100%" fill="url(#pattern_L1_11)"/></g><g fi:class="KUsePattern" opacity="0.11"><pattern id="pattern_L1_12" width="350" height="350" patternUnits="userSpaceOnUse"><use xlink:href="#L1_12" x="-350" y="-350"/><use xlink:href="#L1_12" x="0" y="-350"/><use xlink:href="#L1_12" x="350" y="-350"/><use xlink:href="#L1_12" x="-350" y="0"/><use xlink:href="#L1_12" x="0" y="0"/><use xlink:href="#L1_12" x="350" y="0"/><use xlink:href="#L1_12" x="-350" y="350"/><use xlink:href="#L1_12" x="0" y="350"/><use xlink:href="#L1_12" x="350" y="350"/></pattern><rect x="0" y="0" width="100%" height="100%" fill="url(#pattern_L1_12)"/></g><g fi:class="KUsePattern" opacity="0.1"><pattern id="pattern_L1_13" width="350" height="350" patternUnits="userSpaceOnUse"><use xlink:href="#L1_13" x="-350" y="-350"/><use xlink:href="#L1_13" x="0" y="-350"/><use xlink:href="#L1_13" x="350" y="-350"/><use xlink:href="#L1_13" x="-350" y="0"/><use xlink:href="#L1_13" x="0" y="0"/><use xlink:href="#L1_13" x="350" y="0"/><use xlink:href="#L1_13" x="-350" y="350"/><use xlink:href="#L1_13" x="0" y="350"/><use xlink:href="#L1_13" x="350" y="350"/></pattern><rect x="0" y="0" width="100%" height="100%" fill="url(#pattern_L1_13)"/></g><g fi:class="KUsePattern" opacity="0.11"><pattern id="pattern_L1_14" width="350" height="350" patternUnits="userSpaceOnUse"><use xlink:href="#L1_14" x="-350" y="-350"/><use xlink:href="#L1_14" x="0" y="-350"/><use xlink:href="#L1_14" x="350" y="-350"/><use xlink:href="#L1_14" x="-350" y="0"/><use xlink:href="#L1_14" x="0" y="0"/><use xlink:href="#L1_14" x="350" y="0"/><use xlink:href="#L1_14" x="-350" y="350"/><use xlink:href="#L1_14" x="0" y="350"/><use xlink:href="#L1_14" x="350" y="350"/></pattern><rect x="0" y="0" width="100%" height="100%" fill="url(#pattern_L1_14)"/></g></svg>